<?xml version="1.0" encoding="utf-8"?>
<!-- Generator: Adobe Illustrator 19.2.1, SVG Export Plug-In . SVG Version: 6.00 Build 0)  -->
<svg version="1.1" id="HODL" xmlns="http://www.w3.org/2000/svg" xmlns:xlink="http://www.w3.org/1999/xlink" x="0px" y="0px"
	 viewBox="0 0 612 612" style="enable-background:new 0 0 612 612;" xml:space="preserve">
<style type="text/css">
	.st0{fill:#FFFFFF;}
	.st1{fill:#C10311;}
</style>
<rect x="0" width="612" height="612"/>
<g id="HODL_1_">
	<path id="L" class="st0" d="M452.3,134.5h29.2v114.7h69.8v25.1h-99V134.5z"/>
	<path id="D" class="st0" d="M407.9,137.5c9.8,3.2,17.8,9.1,23.8,17.7c4.9,7,8.2,14.5,10,22.6c1.8,8.1,2.7,15.8,2.7,23.1
		c0,18.6-3.7,34.3-11.2,47.2c-10.1,17.4-25.8,26.1-46.9,26.1H326V134.5h60.3C394.9,134.6,402.2,135.6,407.9,137.5z M354.3,158.8V250
		h27c13.8,0,23.4-6.8,28.9-20.4c3-7.5,4.5-16.3,4.5-26.7c0-14.2-2.2-25.2-6.7-32.8c-4.5-7.6-13.4-11.4-26.7-11.4H354.3z"/>
	<path id="O" class="st0" d="M296.5,261.9c-10.6,10.9-25.8,16.3-45.8,16.3c-20,0-35.3-5.4-45.8-16.3c-14.2-13.3-21.3-32.6-21.3-57.7
		c0-25.6,7.1-44.8,21.3-57.7c10.6-10.9,25.8-16.3,45.8-16.3c20,0,35.3,5.4,45.8,16.3c14.1,12.8,21.2,32.1,21.2,57.7
		C317.7,229.3,310.6,248.5,296.5,261.9z M278.2,240.6c6.8-8.5,10.2-20.7,10.2-36.4c0-15.7-3.4-27.8-10.2-36.4
		c-6.8-8.6-16-12.9-27.6-12.9c-11.6,0-20.8,4.3-27.7,12.8c-6.9,8.5-10.3,20.7-10.3,36.4s3.4,27.9,10.3,36.4
		c6.9,8.5,16.1,12.8,27.7,12.8C262.3,253.4,271.4,249.2,278.2,240.6z"/>
	<path id="H" class="st0" d="M62.3,274.3V134.5h29v53.3h54.4v-53.3h29v139.8h-29v-62.4H91.3v62.4H62.3z"/>
</g>
<g id="BTC">
	<path id="C" class="st0" d="M408.5,305.3c15.5-15.9,35.3-23.8,59.3-23.8c32.1,0,55.6,10.6,70.4,31.9c8.2,11.9,12.6,23.9,13.2,36
		h-40.3c-2.6-9.2-5.9-16.2-9.9-20.9c-7.2-8.4-17.8-12.6-31.9-12.6c-14.4,0-25.7,5.9-34,17.7c-8.3,11.8-12.4,28.5-12.4,50.2
		c0,21.6,4.4,37.8,13.1,48.6c8.7,10.8,19.9,16.2,33.3,16.2c13.8,0,24.4-4.6,31.6-13.9c4-5,7.3-12.4,10-22.4h40
		c-3.5,21-12.3,38.1-26.5,51.3c-14.2,13.2-32.4,19.8-54.5,19.8c-27.4,0-49-8.9-64.7-26.7c-15.7-17.9-23.5-42.4-23.5-73.5
		C381.7,349.5,390.6,323.5,408.5,305.3z"/>
	<path id="T" class="st0" d="M380.7,285.1v34.1H323V478h-40.5V319.3h-57.9v-34.1H380.7z"/>
	<path id="B" class="st0" d="M205.2,305.7c5.9,8.2,8.8,18,8.8,29.4c0,11.8-3,21.2-8.9,28.4c-3.3,4-8.2,7.7-14.7,11
		c9.8,3.6,17.3,9.2,22.3,17c5,7.8,7.5,17.2,7.5,28.3c0,11.4-2.9,21.7-8.6,30.7c-3.6,6-8.2,11.1-13.7,15.2
		c-6.2,4.7-13.4,7.9-21.8,9.7c-8.4,1.7-17.4,2.6-27.2,2.6H62V285.1h93.2C178.7,285.5,195.4,292.3,205.2,305.7z M100.5,318.6v42.5
		h46.9c8.4,0,15.2-1.6,20.4-4.8c5.2-3.2,7.8-8.8,7.8-16.9c0-9-3.5-14.9-10.4-17.8c-6-2-13.5-3-22.8-3H100.5z M100.5,393.1v51.4h46.8
		c8.4,0,14.9-1.1,19.5-3.4c8.4-4.2,12.7-12.2,12.7-24.1c0-10-4.1-16.9-12.3-20.7c-4.6-2.1-11-3.2-19.3-3.3H100.5z"/>
</g>
<rect x="62.2" y="490.2" class="st1" width="489.3" height="60.8"/>
<rect x="62.2" y="61.9" class="st1" width="489.3" height="60.8"/>
</svg>
